<?xml version="1.0" encoding="utf-8"?>
<!-- Generator: Adobe Illustrator 16.0.0, SVG Export Plug-In . SVG Version: 6.00 Build 0)  -->
<!DOCTYPE svg PUBLIC "-//W3C//DTD SVG 1.1//EN" "http://www.w3.org/Graphics/SVG/1.1/DTD/svg11.dtd">
<svg version="1.1" id="Vrstva_1" xmlns="http://www.w3.org/2000/svg" xmlns:xlink="http://www.w3.org/1999/xlink" x="0px" y="0px"
	 width="36.313px" height="50px" viewBox="0 0 36.313 50" enable-background="new 0 0 36.313 50" xml:space="preserve">
<g>
	<g>
		<path d="M36.313,50c-0.384-2.993-1.487-5.736-3.107-8.083c-0.198-0.288-0.4-0.573-0.614-0.849
			c-0.246-0.315-0.508-0.616-0.771-0.915c-0.758-0.854-1.589-1.637-2.489-2.336c-0.308-0.24-0.624-0.467-0.947-0.687
			c-0.315-0.214-0.631-0.425-0.959-0.619c-0.246-0.146-0.499-0.28-0.753-0.415c-0.248,0.246-0.507,0.482-0.776,0.707
			c-0.227,0.188-0.465,0.359-0.704,0.531c-0.237,0.17-0.482,0.33-0.733,0.481c-0.119,0.072-0.236,0.148-0.358,0.219
			c-0.037,0.02-0.072,0.044-0.109,0.063c-1.731,0.957-3.719,1.503-5.833,1.503c-3.317,0-6.325-1.342-8.518-3.506
			C4.521,38.814,0.782,43.898,0,49.994L36.313,50z"/>
		<path d="M7.787,23.829c0,2.445,0.855,4.691,2.276,6.466c0.194,0.246,0.401,0.478,0.617,0.702c0.218,0.226,0.444,0.441,0.682,0.648
			c1.822,1.586,4.194,2.555,6.795,2.555c1.978,0,3.821-0.567,5.396-1.532c0.253-0.156,0.498-0.319,0.734-0.494
			c0.229-0.169,0.45-0.343,0.663-0.528c0.015-0.014,0.028-0.027,0.043-0.039c0.221-0.194,0.435-0.396,0.638-0.609
			c0.217-0.225,0.424-0.457,0.619-0.701c1.42-1.774,2.276-4.021,2.276-6.467"/>
	</g>
	<g>
		<g>
			<g>
				<path d="M25.22,2.595c-0.396,0-0.805,0.04-1.236,0.12C22.498,0.984,20.371,0,18.085,0C13.792,0,10.3,3.492,10.3,7.784
					c0,0.358-0.29,0.648-0.648,0.648S9.003,8.142,9.003,7.784c0-1.404,0.323-2.763,0.96-4.039c0.112-0.227,0.084-0.499-0.074-0.696
					C9.73,2.853,9.472,2.766,9.226,2.826C6.038,3.621,3.812,6.46,3.812,9.731c0,2.696,1.521,5.147,3.908,6.359l-0.008,5.317
					c0,0.172,0.067,0.337,0.19,0.459c0.121,0.122,0.286,0.19,0.458,0.19h19.454c0.358,0,0.648-0.29,0.648-0.648v-5.327
					c2.379-1.215,3.893-3.663,3.893-6.35C32.356,5.795,29.155,2.595,25.22,2.595z M13.307,18.017
					c-0.121,0.099-0.267,0.147-0.411,0.147c-0.188,0-0.374-0.081-0.503-0.237c-0.214-0.261-2.093-2.6-2.093-4.303
					c0-0.359,0.29-0.649,0.648-0.649c0.359,0,0.649,0.29,0.649,0.649c0,0.938,1.104,2.632,1.798,3.48
					C13.623,17.381,13.583,17.79,13.307,18.017z M18.733,17.515c0,0.358-0.29,0.648-0.648,0.648c-0.359,0-0.649-0.29-0.649-0.648
					v-3.892c0-0.359,0.29-0.649,0.649-0.649c0.358,0,0.648,0.29,0.648,0.649V17.515L18.733,17.515z M23.776,17.927
					c-0.129,0.156-0.314,0.237-0.502,0.237c-0.146,0-0.291-0.048-0.411-0.147c-0.276-0.227-0.317-0.636-0.09-0.913
					c0.694-0.85,1.798-2.546,1.798-3.48c0-0.359,0.291-0.649,0.648-0.649c0.359,0,0.649,0.29,0.649,0.649
					C25.869,15.327,23.99,17.666,23.776,17.927z"/>
			</g>
		</g>
	</g>
</g>
</svg>
