<?xml version="1.0" encoding="utf-8"?>
<!-- Generator: Adobe Illustrator 16.0.0, SVG Export Plug-In . SVG Version: 6.00 Build 0)  -->
<!DOCTYPE svg PUBLIC "-//W3C//DTD SVG 1.1//EN" "http://www.w3.org/Graphics/SVG/1.1/DTD/svg11.dtd">
<svg version="1.1" id="Vrstva_1" xmlns="http://www.w3.org/2000/svg" xmlns:xlink="http://www.w3.org/1999/xlink" x="0px" y="0px"
	 width="50px" height="50px" viewBox="0 0 50 50" enable-background="new 0 0 50 50" xml:space="preserve">
<g>
	<circle fill="#FFFFFF" cx="25" cy="25" r="24.34"/>
	<path fill="#D3D3D3" d="M25,50C11.215,50,0,38.785,0,25S11.215,0,25,0s25,11.215,25,25S38.785,50,25,50z M25,1.32
		C11.942,1.32,1.32,11.943,1.32,25c0,13.058,10.623,23.681,23.68,23.681S48.681,38.058,48.681,25C48.681,11.943,38.058,1.32,25,1.32
		z"/>
</g>
<g>
	<g>
		<g>
			<path fill="#D3D3D3" d="M36.955,39.618c0.156-0.177,0.227-0.4,0.196-0.63c-0.256-1.994-0.991-3.823-2.071-5.388
				c-0.132-0.191-0.267-0.382-0.409-0.565c-0.164-0.21-0.339-0.411-0.515-0.61c-0.505-0.569-1.06-1.091-1.659-1.557
				c-0.205-0.16-0.416-0.312-0.632-0.458c-0.21-0.142-0.42-0.283-0.639-0.412c-0.164-0.098-0.333-0.188-0.502-0.277
				c-0.166,0.165-0.338,0.322-0.518,0.472c-0.151,0.125-0.31,0.239-0.47,0.354c-0.158,0.113-0.321,0.219-0.488,0.32
				c-0.08,0.049-0.157,0.1-0.239,0.146c-0.025,0.014-0.048,0.03-0.073,0.043c-1.154,0.638-2.479,1.002-3.888,1.002
				c-2.211,0-4.216-0.895-5.678-2.337c-3.412,1.812-5.904,5.201-6.426,9.265c-0.03,0.229,0.041,0.455,0.198,0.634
				c0.177,0.201,4.406,3.863,11.918,3.863C33.804,43.482,36.777,39.82,36.955,39.618z"/>
		</g>
		<g>
			<path fill="#D3D3D3" d="M18.136,21.543c0,1.63,0.57,3.127,1.517,4.31c0.129,0.164,0.268,0.318,0.411,0.468
				c0.145,0.151,0.296,0.295,0.455,0.433c1.215,1.057,2.796,1.703,4.53,1.703c1.317,0,2.547-0.378,3.598-1.021
				c0.168-0.104,0.331-0.214,0.489-0.329c0.152-0.113,0.3-0.229,0.441-0.353c0.01-0.009,0.019-0.018,0.028-0.026
				c0.147-0.129,0.29-0.264,0.426-0.406c0.145-0.149,0.282-0.304,0.412-0.467c0.947-1.183,1.518-2.681,1.518-4.311"/>
		</g>
	</g>
	<g>
		<g>
			<g>
				<g>
					<path fill="#D3D3D3" d="M29.757,7.389c-0.265,0-0.537,0.026-0.824,0.08c-0.99-1.154-2.408-1.81-3.933-1.81
						c-2.862,0-5.189,2.328-5.189,5.189c0,0.238-0.193,0.432-0.432,0.432s-0.433-0.194-0.433-0.432c0-0.936,0.216-1.842,0.641-2.692
						c0.075-0.151,0.056-0.332-0.05-0.464c-0.105-0.131-0.278-0.189-0.442-0.149c-2.125,0.53-3.608,2.422-3.608,4.603
						c0,1.797,1.013,3.431,2.605,4.239l-0.005,3.544c0,0.115,0.045,0.225,0.126,0.307c0.082,0.081,0.191,0.126,0.306,0.126h12.968
						c0.239,0,0.433-0.193,0.433-0.433v-3.551c1.586-0.811,2.595-2.441,2.595-4.233C34.514,9.522,32.38,7.389,29.757,7.389z
						 M21.815,17.669c-0.081,0.066-0.178,0.098-0.274,0.098c-0.125,0-0.25-0.054-0.335-0.158c-0.142-0.174-1.395-1.733-1.395-2.869
						c0-0.239,0.194-0.432,0.433-0.432c0.239,0,0.433,0.193,0.433,0.432c0,0.625,0.735,1.755,1.199,2.32
						C22.026,17.245,21.999,17.518,21.815,17.669z M25.433,17.334c0,0.239-0.193,0.433-0.433,0.433s-0.432-0.193-0.432-0.433V14.74
						c0-0.239,0.193-0.432,0.432-0.432s0.433,0.193,0.433,0.432V17.334L25.433,17.334z M28.794,17.609
						c-0.086,0.104-0.209,0.158-0.334,0.158c-0.098,0-0.194-0.032-0.274-0.098c-0.185-0.151-0.212-0.424-0.061-0.608
						c0.464-0.566,1.199-1.697,1.199-2.32c0-0.239,0.193-0.432,0.433-0.432s0.433,0.193,0.433,0.432
						C30.189,15.875,28.937,17.435,28.794,17.609z"/>
				</g>
			</g>
		</g>
	</g>
</g>
</svg>
