<?xml version="1.0" encoding="utf-8"?>
<!-- Generator: Adobe Illustrator 16.0.0, SVG Export Plug-In . SVG Version: 6.00 Build 0)  -->
<!DOCTYPE svg PUBLIC "-//W3C//DTD SVG 1.1//EN" "http://www.w3.org/Graphics/SVG/1.1/DTD/svg11.dtd">
<svg version="1.1" id="Vrstva_1" xmlns="http://www.w3.org/2000/svg" xmlns:xlink="http://www.w3.org/1999/xlink" x="0px" y="0px"
	 width="69.375px" height="50px" viewBox="0 0 69.375 50" enable-background="new 0 0 69.375 50" xml:space="preserve">
<g>
	<g>
		<path d="M37.574,39.196c7.647,0,13.87-6.221,13.87-13.868s-6.223-13.871-13.87-13.871c-7.646,0-13.869,6.223-13.869,13.871
			C23.705,32.975,29.926,39.196,37.574,39.196z"/>
		<path d="M37.575,45.768c11.291,0,20.441-9.152,20.441-20.442c0-11.292-9.151-20.442-20.441-20.442s-20.441,9.151-20.441,20.442
			C17.134,36.615,26.285,45.768,37.575,45.768z M37.575,8.016c9.543,0,17.311,7.767,17.311,17.31s-7.767,17.309-17.311,17.309
			s-17.31-7.766-17.31-17.309S28.031,8.016,37.575,8.016z"/>
		<path d="M69.375,47.669l-1.192-45.88C68.183,0.801,67.382,0,66.394,0c-0.264,0-0.512,0.061-0.737,0.165V0.148
			c0,0-0.046,0.03-0.113,0.075c-0.171,0.094-0.324,0.21-0.457,0.353c-1.31,1.074-5.483,5.454-5.833,11.375
			c-0.53,9.031,3.856,12.688,5.351,16.038l-1.192,19.68c0,0.988,1.994,1.789,2.981,1.789C67.382,49.458,69.375,48.657,69.375,47.669
			z"/>
		<path d="M3.123,19.719l3.088,1.542c0.352,0.176,0.739,0.305,1.145,0.401L6.163,48.5c0,0.828,1.994,1.5,2.981,1.5
			c0.988,0,2.982-0.672,2.982-1.5l-1.193-26.976c0.42-0.132,0.825-0.293,1.179-0.51l2.288-1.393c1.65-1.007,2.895-3.222,2.895-5.155
			V2.441c0-0.988-0.802-1.789-1.789-1.789s-1.789,0.801-1.789,1.789v10.832h-0.994V2.441c0-0.988-0.802-1.789-1.789-1.789
			S9.145,1.454,9.145,2.441v10.832H8.147V2.441c0-0.988-0.802-1.789-1.789-1.789S4.569,1.454,4.569,2.441v10.832h-0.99V2.828
			c0-0.988-0.802-1.789-1.789-1.789C0.802,1.039,0,1.84,0,2.828v11.838C0,16.656,1.344,18.829,3.123,19.719z"/>
	</g>
</g>
</svg>
