<?xml version="1.0" encoding="utf-8"?>
<!-- Generator: Adobe Illustrator 16.0.0, SVG Export Plug-In . SVG Version: 6.00 Build 0)  -->
<!DOCTYPE svg PUBLIC "-//W3C//DTD SVG 1.1//EN" "http://www.w3.org/Graphics/SVG/1.1/DTD/svg11.dtd">
<svg version="1.1" id="Vrstva_1" xmlns="http://www.w3.org/2000/svg" xmlns:xlink="http://www.w3.org/1999/xlink" x="0px" y="0px"
	 width="48.272px" height="50px" viewBox="0 0 48.272 50" enable-background="new 0 0 48.272 50" xml:space="preserve">
<path fill="#010002" d="M47.54,45.542L35.639,33.166c3.06-3.638,4.736-8.214,4.736-12.978C40.375,9.056,31.319,0,20.188,0
	C9.056,0,0,9.056,0,20.188s9.056,20.188,20.188,20.188c4.179,0,8.161-1.262,11.565-3.654l11.991,12.471
	C44.245,49.713,44.919,50,45.642,50c0.684,0,1.332-0.261,1.824-0.735C48.513,48.258,48.546,46.589,47.54,45.542z M20.188,5.266
	c8.228,0,14.921,6.694,14.921,14.921c0,8.227-6.693,14.921-14.921,14.921S5.267,28.415,5.267,20.188
	C5.267,11.96,11.96,5.266,20.188,5.266z"/>
</svg>
