<?xml version="1.0" encoding="utf-8"?>
<!-- Generator: Adobe Illustrator 16.0.0, SVG Export Plug-In . SVG Version: 6.00 Build 0)  -->
<!DOCTYPE svg PUBLIC "-//W3C//DTD SVG 1.1//EN" "http://www.w3.org/Graphics/SVG/1.1/DTD/svg11.dtd">
<svg version="1.1" id="Vrstva_1" xmlns="http://www.w3.org/2000/svg" xmlns:xlink="http://www.w3.org/1999/xlink" x="0px" y="0px"
	 width="52.188px" height="50px" viewBox="0 0 52.188 50" enable-background="new 0 0 52.188 50" xml:space="preserve">
<path fill="#010002" d="M51.056,22.659c1.026-1.001,1.39-2.47,0.946-3.836c-0.443-1.366-1.601-2.341-3.021-2.547l-12.637-1.836
	c-0.537-0.078-1.003-0.416-1.243-0.903l-5.648-11.45C28.818,0.799,27.531,0,26.095,0c-1.435,0-2.722,0.799-3.356,2.086l-5.65,11.45
	c-0.24,0.488-0.706,0.826-1.245,0.904L3.208,16.277c-1.419,0.205-2.578,1.181-3.021,2.547c-0.443,1.366-0.08,2.835,0.946,3.836
	l9.143,8.912c0.389,0.38,0.569,0.929,0.477,1.463L8.595,45.619c-0.192,1.107,0.1,2.185,0.816,3.035
	c1.113,1.324,3.058,1.727,4.614,0.91l11.302-5.942c0.471-0.248,1.066-0.245,1.538,0l11.301,5.942C38.716,49.854,39.301,50,39.908,50
	c1.104,0,2.151-0.491,2.871-1.346c0.717-0.851,1.006-1.93,0.816-3.035l-2.158-12.584c-0.092-0.535,0.087-1.083,0.477-1.463
	L51.056,22.659z"/>
</svg>
