<?xml version="1.0" encoding="utf-8"?>
<!-- Generator: Adobe Illustrator 16.0.0, SVG Export Plug-In . SVG Version: 6.00 Build 0)  -->
<!DOCTYPE svg PUBLIC "-//W3C//DTD SVG 1.1//EN" "http://www.w3.org/Graphics/SVG/1.1/DTD/svg11.dtd">
<svg version="1.1" id="Vrstva_1" xmlns="http://www.w3.org/2000/svg" xmlns:xlink="http://www.w3.org/1999/xlink" x="0px" y="0px"
	 width="61.555px" height="50px" viewBox="0 0 61.555 50" enable-background="new 0 0 61.555 50" xml:space="preserve">
<g>
	<g>
		<path fill="#010002" d="M61.555,5.916c-2.267,1.004-4.697,1.685-7.251,1.989c2.607-1.562,4.604-4.039,5.55-6.981
			c-2.445,1.446-5.146,2.496-8.023,3.065C49.526,1.531,46.249,0,42.614,0c-6.974,0-12.628,5.654-12.628,12.624
			c0,0.989,0.112,1.954,0.327,2.877C19.821,14.974,10.517,9.947,4.288,2.308C3.2,4.169,2.581,6.339,2.581,8.654
			c0,4.381,2.23,8.247,5.615,10.508c-2.068-0.069-4.016-0.638-5.719-1.584v0.158c0,6.116,4.354,11.22,10.127,12.382
			c-1.059,0.285-2.173,0.442-3.327,0.442c-0.815,0-1.604-0.081-2.377-0.235c1.607,5.019,6.269,8.669,11.793,8.77
			c-4.319,3.385-9.766,5.396-15.683,5.396c-1.019,0-2.022-0.062-3.011-0.173C5.589,47.907,12.224,50,19.355,50
			c23.228,0,35.926-19.24,35.926-35.926l-0.043-1.635C57.72,10.67,59.865,8.447,61.555,5.916z"/>
	</g>
</g>
</svg>
