<?xml version="1.0" encoding="utf-8"?>
<!-- Generator: Adobe Illustrator 16.0.0, SVG Export Plug-In . SVG Version: 6.00 Build 0)  -->
<!DOCTYPE svg PUBLIC "-//W3C//DTD SVG 1.1//EN" "http://www.w3.org/Graphics/SVG/1.1/DTD/svg11.dtd">
<svg version="1.1" id="Vrstva_1" xmlns="http://www.w3.org/2000/svg" xmlns:xlink="http://www.w3.org/1999/xlink" x="0px" y="0px"
	 width="50px" height="50px" viewBox="0 0 50 50" enable-background="new 0 0 50 50" xml:space="preserve">
<path d="M25,0C11.215,0,0,11.216,0,25.001C0,38.785,11.215,50,25,50s25-11.215,25-24.999C50,11.216,38.785,0,25,0z M37.085,23.258
	c0,0-11.812,7.371-12.336,7.456c-0.105,0.022-0.213,0.033-0.323,0.031c-0.017,0-0.034,0.003-0.051,0.003
	c-1.27,0-2.299-1.03-2.299-2.299V9.309c0-1.27,1.029-2.299,2.299-2.299c1.269,0,2.298,1.029,2.298,2.299v14.929l8.014-4.901
	c0.792-0.483,1.971,0.002,2.633,1.085S37.876,22.773,37.085,23.258z"/>
</svg>
