<?xml version="1.0" encoding="utf-8"?>
<!-- Generator: Adobe Illustrator 16.0.0, SVG Export Plug-In . SVG Version: 6.00 Build 0)  -->
<!DOCTYPE svg PUBLIC "-//W3C//DTD SVG 1.1//EN" "http://www.w3.org/Graphics/SVG/1.1/DTD/svg11.dtd">
<svg version="1.1" id="Vrstva_1" xmlns="http://www.w3.org/2000/svg" xmlns:xlink="http://www.w3.org/1999/xlink" x="0px" y="0px"
	 width="47.855px" height="50px" viewBox="0 0 47.855 50" enable-background="new 0 0 47.855 50" xml:space="preserve">
<g>
	<path fill="#010002" d="M22.915,50h2.028h21.091c0.552,0,1.068-0.23,1.42-0.629c0.31-0.35,0.446-0.791,0.388-1.244
		c-0.506-3.941-1.959-7.554-4.092-10.645c-0.262-0.379-0.529-0.756-0.811-1.119c-0.324-0.414-0.668-0.811-1.016-1.204
		c-0.998-1.125-2.093-2.155-3.278-3.077c-0.405-0.315-0.823-0.614-1.247-0.903c-0.416-0.281-0.832-0.56-1.265-0.815
		c-0.323-0.193-0.657-0.369-0.991-0.547c-0.327,0.324-0.667,0.635-1.022,0.932c-0.298,0.247-0.612,0.473-0.927,0.699
		c-0.312,0.224-0.637,0.434-0.967,0.634c-0.156,0.096-0.311,0.196-0.473,0.288c-0.049,0.027-0.094,0.059-0.143,0.084
		c-2.281,1.26-4.898,1.979-7.684,1.979c-4.369,0-8.331-1.767-11.218-4.618C5.968,33.396,1.043,40.092,0.013,48.12
		c-0.058,0.454,0.081,0.899,0.392,1.253c0.351,0.396,0.867,0.626,1.415,0.626h19.812L22.915,50L22.915,50z"/>
	<path fill="#010002" d="M14.081,23.1c0.287,0.298,0.586,0.582,0.898,0.854c2.4,2.09,5.525,3.365,8.95,3.365
		c2.604,0,5.032-0.747,7.108-2.018c0.332-0.206,0.654-0.422,0.967-0.651c0.301-0.222,0.592-0.451,0.872-0.696
		c0.019-0.017,0.038-0.035,0.057-0.051c0.29-0.255,0.573-0.522,0.841-0.803c0.285-0.296,0.558-0.602,0.814-0.923
		c1.871-2.338,2.999-5.296,2.999-8.519c0-1.148-0.158-2.257-0.427-3.324c-0.1-0.391-0.211-0.774-0.343-1.151
		c-0.128-0.37-0.27-0.734-0.429-1.09C34.254,3.331,29.477,0,23.929,0C16.398,0,10.27,6.128,10.27,13.658
		c0,3.222,1.127,6.18,2.999,8.517C13.523,22.498,13.797,22.804,14.081,23.1z"/>
</g>
</svg>
