<?xml version="1.0" encoding="utf-8"?>
<!DOCTYPE svg PUBLIC "-//W3C//DTD SVG 1.1//EN" "http://www.w3.org/Graphics/SVG/1.1/DTD/svg11.dtd">
<svg version="1.1" id="Vrstva_1" xmlns="http://www.w3.org/2000/svg" xmlns:xlink="http://www.w3.org/1999/xlink" x="0px" y="0px"
	 width="568px" height="214.667px" viewBox="-1.452 -2.277 568 214.667" style="enable-background:new -1.452 -2.277 568 214.667;"
	 xml:space="preserve">
<style type="text/css">
<![CDATA[
	.st0{fill:#1D1D1B;}
]]>
</style>
<path class="st0" d="M533.823,122.922l28.957-96.449c2.83-9.146,1.742-19.159-9.797-19.159c-11.757,0-16.112,10.015-15.895,18.724
	l-4.354,96.885H533.823 M530.775,135.333c-7.62,0-15.022,7.402-15.022,16.111c0,6.313,4.137,10.887,10.016,10.887
	c8.273,0,15.24-7.621,15.24-16.33C541.009,139.905,536.653,135.333,530.775,135.333z M452.048,117.043
	c4.571-30.044,14.151-53.559,31.353-53.559c6.313,0,10.232,4.354,10.232,12.845C493.633,93.312,484.924,114.431,452.048,117.043z
	 M463.369,162.983c19.377,0,34.835-12.628,43.763-23.078l-0.652-0.437c-12.193,13.718-22.861,18.725-33.529,18.725
	c-13.063,0-21.555-9.797-21.555-31.569c0-2.395,0.218-5.66,0.652-8.49c31.569-3.483,61.181-14.37,61.181-34.617
	c0-13.063-9.362-21.119-26.997-21.119c-38.755,0-57.914,33.747-57.914,63.792C428.316,148.614,440.943,162.983,463.369,162.983z
	 M414.339,11.667c-8.709,0-16.109,8.709-16.109,17.2c0,6.532,4.57,11.539,11.103,11.539c8.274,0,16.33-8.056,16.33-16.982
	C425.661,16.675,421.306,11.667,414.339,11.667z M390.172,162.983c6.098,0,20.03-9.146,32.44-22.859l-0.652-0.437
	c-7.186,7.402-14.37,14.15-23.95,19.595c4.572-22.425,9.362-44.633,13.718-67.058c1.307-6.097,2.395-12.41,2.395-16.766
	c0-8.055-3.266-13.28-12.628-13.28c-7.838,0-18.506,8.056-31.351,22.86l0.651,0.653c7.402-8.273,15.677-16.982,23.949-20.901
	l-15.894,80.558c-0.437,2.395-0.653,4.354-0.653,6.313C378.197,159.935,382.77,162.983,390.172,162.983z M328.646,63.267
	c8.709,0,12.409,8.056,12.409,18.07c0,25.254-10.668,52.688-25.908,52.688c-9.146,0-13.063-7.402-13.063-17.635
	C302.084,90.918,313.405,63.267,328.646,63.267z M361.957,92.442c0-15.241-9.797-25.256-22.86-28.74v-1.306
	c0-8.491,3.701-18.071,9.361-23.078c0,8.708,6.532,13.716,13.937,13.716c6.312,0,12.19-3.484,12.19-10.668
	c0-6.967-6.749-10.016-11.975-10.016c-15.676,0-24.604,15.894-24.604,30.264v0.871c-3.048-0.654-6.096-1.089-9.36-1.089
	c-27.869,0-47.682,21.337-47.682,45.721c0,8.274,2.83,15.459,9.362,20.031c-12.192,5.661-17.418,13.28-17.418,18.724
	c0,17.635,57.914,3.049,57.914,31.57c0,13.498-11.539,31.134-33.529,31.134c-15.894,0-26.779-5.008-31.134-11.104
	c8.709-1.524,16.329-9.362,16.329-17.2c0-5.661-3.048-10.887-10.015-10.887c-6.532,0-11.976,5.661-11.976,14.588
	c0,13.499,11.104,25.474,36.577,25.474c34.836,0,58.785-18.942,58.785-38.973c0-32.875-79.904-13.936-79.904-28.305
	c0-4.789,7.403-11.104,15.023-14.369c6.312,4.138,16.328,6.313,23.296,6.313C341.709,135.115,361.957,114.431,361.957,92.442z
	 M233.242,63.267c8.709,0,12.41,8.056,12.41,18.07c0,25.254-10.668,52.688-25.909,52.688c-9.144,0-13.062-7.402-13.062-17.635
	C206.68,90.918,218.002,63.267,233.242,63.267z M266.554,92.442c0-15.241-9.799-25.256-22.861-28.74v-1.306
	c0-8.491,3.701-18.071,9.362-23.078c0,8.708,6.53,13.716,13.934,13.716c6.314,0,12.192-3.484,12.192-10.668
	c0-6.967-6.749-10.016-11.975-10.016c-15.676,0-24.603,15.894-24.603,30.264v0.871c-3.048-0.654-6.097-1.089-9.362-1.089
	c-27.868,0-47.681,21.337-47.681,45.721c0,8.274,2.831,15.459,9.361,20.031c-12.191,5.661-17.418,13.28-17.418,18.724
	c0,17.635,57.914,3.049,57.914,31.57c0,13.498-11.539,31.134-33.528,31.134c-15.894,0-26.779-5.008-31.135-11.104
	c8.709-1.524,16.329-9.362,16.329-17.2c0-5.661-3.048-10.887-10.015-10.887c-6.532,0-11.975,5.661-11.975,14.588
	c0,13.499,11.104,25.474,36.577,25.474c34.835,0,58.784-18.942,58.784-38.973c0-32.875-79.902-13.936-79.902-28.305
	c0-4.789,7.401-11.104,15.021-14.369c6.314,4.138,16.329,6.313,23.297,6.313C246.305,135.115,266.554,114.431,266.554,92.442z
	 M117.153,117.043c4.573-30.044,14.152-53.559,31.352-53.559c6.314,0,10.233,4.354,10.233,12.845
	C158.738,93.312,150.029,114.431,117.153,117.043z M128.475,162.983c19.377,0,34.835-12.628,43.762-23.078l-0.653-0.437
	c-12.192,13.718-22.86,18.725-33.528,18.725c-13.064,0-21.556-9.797-21.556-31.569c0-2.395,0.218-5.66,0.653-8.49
	c31.57-3.483,61.18-14.37,61.18-34.617c0-13.063-9.361-21.119-26.997-21.119c-38.755,0-57.914,33.747-57.914,63.792
	C93.422,148.614,106.05,162.983,128.475,162.983z M27.868,62.396C16.546,62.396,6.314,78.29,0,88.958l0.653,0.436
	c6.096-9.797,10.886-17.417,17.853-22.426c3.484,21.119,8.928,67.93,10.668,95.363h1.308c21.771-31.353,65.534-61.833,65.534-88.396
	c0-8.709-5.009-12.628-10.887-12.628c-9.145,0-10.232,9.361-10.232,11.54c0,10.449,11.32,14.805,16.329,15.021
	c-7.186,16.765-28.522,35.489-42.456,51.384c-1.742-25.69-5.007-51.384-6.967-62.485C40.496,68.71,37.448,62.396,27.868,62.396z"/>
<path class="st0" d="M21.052,17.339l5.516,19.223H15.413L21.052,17.339 M17.334,53.586v-2.354c-0.868,0-5.578,0.628-5.578-1.333
	c0-0.706,0.559-2.982,1.24-5.336l1.611-5.648h12.704l3.347,12.317h-4.771v2.354h19.645v-2.354h-3.718L26.444,0h-2.417L9.402,48.957
	c-0.682,2.354-3.409,2.275-4.896,2.275v2.354H17.334z"/>
<path class="st0" d="M55.642,34.497c0-3.374,3.223-10.435,6.692-10.435c2.479,0,3.1,2.667,3.1,5.256v19.458
	c0,2.354-0.868,3.922-2.913,3.922c-3.718,0-6.879-6.041-6.879-9.258V34.497 M55.642,49.01h0.186
	c1.549,3.452,4.648,5.729,7.747,5.729c6.754,0,11.526-8.16,11.526-16.241c0-8.395-4.4-16.476-11.465-16.476
	c-4.215,0-6.012,2.668-7.87,7.061h-0.124l-0.005-5.985H42.814l0.001,2.221h4.279l-0.005,37.02h-3.16v2.197h16.919v-2.197h-5.206
	V49.01z"/>
<path class="st0" d="M86.862,35.046v-7.375c0-2.117,1.115-3.608,3.78-3.608c2.975,0,4.338,1.256,4.338,3.296v7.688H86.862
	 M100.434,37.086c0.99,0,2.912,0.393,2.912-1.49c0-8.159-5.888-13.573-12.022-13.573c-7.065,0-14.501,5.885-14.501,16.554
	c0,10.671,6.94,16.163,14.625,16.163c5.763,0,10.411-3.295,12.022-10.592l-1.426-0.627c-1.425,6.12-5.267,9.179-10.163,9.179
	c-3.223,0-5.02-1.412-5.02-5.492V37.086H100.434z"/>
<path class="st0" d="M105.623,23.145v-11h8.552v11h4.711v2.196h-4.711v21.263c0,1.568-0.31,4.001,1.487,4.001
	c2.417,0,2.852-2.433,3.224-4.943l1.797,0.471c-1.054,6.355-4.4,8.631-9.295,8.631c-5.765,0-5.765-3.139-5.765-7.062v-22.36h-3.78
	v-2.196H105.623"/>
<path class="st0" d="M129.435,10.052c2.293,0,4.399,2.591,4.399,5.571c0,2.982-2.045,5.649-4.399,5.649
	c-2.355,0-4.462-2.667-4.462-5.649C124.973,12.642,127.142,10.052,129.435,10.052 M125.345,51.389l-0.004-26.048h-4.272v-2.197
	h12.828v28.245h3.78v2.196h-16.36v-2.196H125.345z"/>
<path class="st0" d="M139.772,23.145V12.149h8.552v10.996h4.71v2.196h-4.71v21.263c0,1.568-0.31,4.001,1.487,4.001
	c2.417,0,2.851-2.433,3.223-4.943l1.797,0.471c-1.053,6.355-4.399,8.631-9.296,8.631c-5.763,0-5.763-3.139-5.763-7.062v-22.36h-3.78
	v-2.196H139.772"/>
</svg>
