<?xml version="1.0" encoding="utf-8"?>
<!DOCTYPE svg PUBLIC "-//W3C//DTD SVG 1.1//EN" "http://www.w3.org/Graphics/SVG/1.1/DTD/svg11.dtd">
<svg version="1.1" id="apetit" xmlns="http://www.w3.org/2000/svg" xmlns:xlink="http://www.w3.org/1999/xlink" x="0px" y="0px" width="394.702px" height="169.743px" viewBox="0 0 394.702 169.743" class="st0" style="enable-background:new 0 0 394.702 169.743;" xml:space="preserve">
	<style type="text/css">
		<![CDATA[
			.st0{fill: #FFFFFF;}
		]]>
	</style>
	<path class="st0" style="fill-rule:evenodd;clip-rule:evenodd;" d="M33.729,140.891v-6.188c-2.281,0-14.665,1.651-14.665-3.506
		c0-1.856,1.467-7.84,3.259-14.028l4.236-14.852h33.403l8.799,32.386H56.215v6.188h51.651v-6.188H98.09L57.681,0h-6.355
		L12.873,128.722c-1.792,6.188-8.961,5.98-12.873,5.98v6.188H33.729L33.729,140.891z M43.505,45.589l14.501,50.539H28.678
		L43.505,45.589L43.505,45.589z"/>
	<path class="st0" style="fill-rule:evenodd;clip-rule:evenodd;" d="M134.45,128.927h0.489c4.072,9.076,12.221,15.06,20.366,15.06
		c17.761,0,30.308-21.453,30.308-42.701c0-22.073-11.568-43.319-30.144-43.319c-11.08,0-15.806,7.014-20.694,18.565h-0.325
		l-0.013-15.739c-7.496,0-33.717,0-33.717,0l0.003,5.839h11.251l-0.011,97.337h-8.31v5.775h44.482v-5.775H134.45V128.927
		L134.45,128.927z M134.45,90.765c0-8.871,8.474-27.436,17.598-27.436c6.518,0,8.146,7.014,8.146,13.821v51.159
		c0,6.188-2.28,10.312-7.658,10.312c-9.776,0-18.086-15.883-18.086-24.341V90.765L134.45,90.765z"/>
	<path class="st0" style="fill-rule:evenodd;clip-rule:evenodd;" d="M252.22,97.571c2.606,0,7.657,1.031,7.657-3.919
		c0-21.453-15.479-35.687-31.61-35.687c-18.574,0-38.127,15.471-38.127,43.524c0,28.055,18.249,42.496,38.453,42.496
		c15.153,0,27.375-8.664,31.61-27.85l-3.747-1.649c-3.748,16.091-13.85,24.134-26.723,24.134c-8.474,0-13.198-3.711-13.198-14.438
		V97.571H252.22L252.22,97.571z M216.535,92.209V72.818c0-5.569,2.933-9.489,9.939-9.489c7.821,0,11.405,3.301,11.405,8.665v20.216
		H216.535L216.535,92.209z"/>
	<path class="st0" style="" d="M265.862,60.854V31.932h22.485v28.921h12.383v5.776h-12.383v55.904c0,4.124-0.814,10.52,3.91,10.52
		c6.354,0,7.496-6.396,8.473-12.997l4.727,1.238c-2.771,16.709-11.569,22.692-24.441,22.692c-15.153,0-15.153-8.253-15.153-18.565
		V66.629h-9.939v-5.776H265.862L265.862,60.854z"/>
	<path class="st0" style="fill-rule:evenodd;clip-rule:evenodd;" d="M317.716,135.115l-0.007-68.484h-11.236v-5.779h33.729v74.264
		h9.939v5.775h-43.016v-5.775H317.716L317.716,135.115z M328.47,26.431c6.028,0,11.569,6.809,11.569,14.646
		c0,7.84-5.377,14.852-11.569,14.852c-6.191,0-11.731-7.012-11.731-14.852C316.738,33.24,322.441,26.431,328.47,26.431
		L328.47,26.431z"/>
	<path class="st0" style="" d="M355.108,60.854v-28.91h22.485v28.91h12.384v5.776h-12.384v55.904c0,4.124-0.814,10.52,3.91,10.52
		c6.355,0,7.495-6.396,8.474-12.997l4.725,1.238c-2.77,16.709-11.568,22.692-24.441,22.692c-15.152,0-15.152-8.253-15.152-18.565
		V66.629h-9.939v-5.776H355.108L355.108,60.854z"/>
</svg>
