<?xml version="1.0" encoding="UTF-8"?>
<svg width="912.24" height="223.51" version="1.1" viewBox="0 0 912.23999 223.50667" xml:space="preserve" xmlns="http://www.w3.org/2000/svg" xmlns:cc="http://creativecommons.org/ns#" xmlns:dc="http://purl.org/dc/elements/1.1/" xmlns:rdf="http://www.w3.org/1999/02/22-rdf-syntax-ns#"><metadata><rdf:RDF><cc:Work rdf:about=""><dc:format>image/svg+xml</dc:format><dc:type rdf:resource="http://purl.org/dc/dcmitype/StillImage"/></cc:Work></rdf:RDF></metadata><g transform="matrix(1.3333 0 0 -1.3333 0 223.51)"><g transform="scale(.1)"><path d="m3806.5 837.02c0 481.52 330.76 839.28 814.52 839.28 175.51 0 333.01-45 450.01-126.01 166.5-114.75 263.26-294.75 283.52-499.51h-470.27c-11.25 126-117 238.51-270.01 238.51-222.75 0-330.76-189-330.76-452.27 0-263.26 126.01-452.26 335.26-452.26 164.25 0 263.26 108 279.01 252.01h474.76c-13.5-177.76-94.5-335.26-209.25-445.51-137.26-132.75-308.27-191.26-542.27-191.26-490.51 0-814.52 355.52-814.52 837.02" fill="#26b9f1"/><path d="m5444.5 425.26 600.76 690.77c54 63.01 128.25 130.51 128.25 130.51v6.75s-81-9-153-9h-517.52v402.76h1296v-353.26l-596.26-686.27c-74.26-85.5-164.26-168.76-164.26-168.76v-6.75s90 9 189 9h614.27v-402.76h-1397.3v387.01" fill="#26b9f1"/><path d="m265.49 697.8c33.746 0 56.996 20.254 56.996 52.504 0 34.496-25.496 51.75-57.75 51.75h-111v-104.25zm-14.254 204.75c30 0 50.25 14.254 50.25 42.75 0 27.746-20.996 44.246-50.996 44.246h-96.75v-86.996zm-251.23 208.5h277.48c52.5 0 91.5-12.76 120-34.51 32.25-24.74 51-61.49 51-105.74 0-51-21.75-83.246-66.746-102.75v-2.254c58.496-18.742 92.246-68.246 92.246-128.99 0-57.746-23.253-101.25-61.5-128.24-32.246-22.5-74.25-33.75-129.75-33.75h-282.73v536.23" fill="#231f20"/><path d="m761.99 574.82v49.489h-2.254c-29.246-39.75-66.746-61.5-119.24-61.5-91.5 0-136.49 60-136.49 147.75v246.74h141.74v-212.99c0-39.746 17.25-60.743 50.996-60.743 36.754 0 58.5 26.247 58.5 67.497v206.24h141.74v-382.48h-134.99" fill="#231f20"/><path d="m1083 899.55h2.25c30.75 48 67.49 65.996 116.24 65.996 11.25 0 18.75-1.496 23.25-3.75v-120.74h-3c-83.24 14.25-131.99-23.25-131.99-109.5v-156.74h-141.75v382.48h135v-57.75" fill="#231f20"/><path d="m1526.2 769.06c0 54.746-28.5 98.246-70.5 98.246-41.24 0-68.99-39.75-68.99-98.246 0-58.5 27-99.75 68.99-99.75 42 0 70.5 44.254 70.5 99.75zm-283.49-2.25c0 120 69 202.49 171 202.49 54.74 0 81.74-20.246 106.49-52.492h2.25v194.24h141.74v-536.23h-134.99v53.239h-1.5c-24.75-42.75-65.24-66-112.5-66-98.99 0-172.49 72.761-172.49 204.75" fill="#231f20"/><path d="m1943.2 713.56v33.75c-13.5-6.754-30.75-12.754-54.75-18.004-41.24-9-53.99-20.996-53.99-43.496 0-25.504 20.99-36.754 44.25-36.754 32.99 0 64.49 18.75 64.49 64.504zm6-94.504h-1.5c-24.75-33.75-63.75-53.989-122.25-53.989-73.49 0-127.49 39.75-127.49 114.75 0 84.743 65.25 109.49 138.74 117.74 81 9 102.75 18.75 102.75 42.75 0 21-9.75 36.746-40.5 36.746s-46.49-17.996-50.24-45.746h-134.25c3 75.746 61.5 137.99 181.49 137.99 58.5 0 107.25-11.996 138.75-35.246 31.5-24.746 45.74-53.996 45.74-105v-144.75c0-24.75 9.75-26.989 24-24.75h2.25v-80.239c-10.49-4.5-35.99-11.25-62.24-11.25-57 0-86.25 15.75-95.25 50.989" fill="#231f20"/><path d="m2141.2 1111h156.74v-536.23h-156.74v536.23" fill="#231f20"/><path d="m2490.7 904.8h2.25c30.75 41.996 69.75 64.496 123 64.496 88.49 0 134.24-59.246 134.24-146.99v-247.48h-141.74v212.99c0 39.746-16.5 65.996-53.25 65.996-36 0-57.75-31.5-57.75-72.75v-206.24h-141.74v382.48h134.99v-52.5" fill="#231f20"/><path d="m2778 957.3h49.5v123.75h138.74v-123.75h72.75v-85.496h-72.75v-155.25c0-38.246 27-39 71.25-36v-104.24c-21.75-5.25-44.25-9-69.75-9-92.99 0-140.24 26.25-140.24 117.74v186.75h-49.5v85.496" fill="#231f20"/><path d="m3198.7 806.56h131.99c-6 42.75-30 68.25-63.74 68.25-39 0-60.75-26.25-68.25-68.25zm-138.74-39.746c0 115.49 83.24 203.24 203.99 203.24 60 0 105.74-19.504 140.99-51.75 46.5-42.746 68.25-111 66.74-186.74h-272.98c8.25-44.243 32.25-71.25 75-71.25 24.75 0 42.75 9.75 53.24 28.5h137.24c-8.24-34.5-35.24-68.25-72.74-92.25-35.25-22.5-73.5-32.239-122.25-32.239-125.24 0-209.23 85.5-209.23 202.49" fill="#231f20"/><path d="m3642 899.55h2.25c30.75 48 67.49 65.996 116.24 65.996 11.25 0 18.75-1.496 23.26-3.75v-120.74h-3.01c-83.24 14.25-131.99-23.25-131.99-109.5v-156.74h-141.74v382.48h134.99v-57.75" fill="#231f20"/><path d="m3952.4 904.8h2.24c30.75 41.996 69.76 64.496 123 64.496 88.5 0 134.25-59.246 134.25-146.99v-247.48h-141.75v212.99c0 39.746-16.49 65.996-53.24 65.996-36.01 0-57.76-31.5-57.76-72.75v-206.24h-141.73v382.48h134.99v-52.5" fill="#231f20"/><path d="m4487.9 713.56v33.75c-13.49-6.754-30.74-12.754-54.74-18.004-41.25-9-54-20.996-54-43.496 0-25.504 21-36.754 44.25-36.754 33 0 64.49 18.75 64.49 64.504zm6.01-94.504h-1.5c-24.75-33.75-63.75-53.989-122.25-53.989-73.5 0-127.49 39.75-127.49 114.75 0 84.743 65.24 109.49 138.74 117.74 81 9 102.74 18.75 102.74 42.75 0 21-9.74 36.746-40.49 36.746s-46.5-17.996-50.25-45.746h-134.25c3 75.746 61.51 137.99 181.5 137.99 58.49 0 107.24-11.996 138.75-35.246 31.49-24.746 45.74-53.996 45.74-105v-144.75c0-24.75 9.76-26.989 24-24.75h2.25v-80.239c-10.5-4.5-36-11.25-62.25-11.25-57 0-86.25 15.75-95.24 50.989" fill="#231f20"/><path d="m4659 957.3h49.49v123.75h138.75v-123.75h72.75v-85.496h-72.75v-155.25c0-38.246 26.99-39 71.24-36v-104.24c-21.75-5.25-44.25-9-69.74-9-93 0-140.25 26.25-140.25 117.74v186.75h-49.49v85.496" fill="#231f20"/><path d="m4956.7 957.3h141.75v-382.48h-141.75zm0 153.75h141.75v-107.25h-141.75v107.25" fill="#231f20"/><path d="m5408.2 765.31c0 64.496-22.5 107.99-66 107.99-43.49 0-64.5-43.496-64.5-107.99s21.01-107.99 64.5-107.99c43.5 0 66 43.493 66 107.99zm-274.49 0c0 116.25 82.5 203.24 209.99 203.24 127.5 0 208.49-86.996 208.49-203.24 0-116.25-80.99-202.5-208.49-202.5-127.49 0-209.99 86.25-209.99 202.5" fill="#231f20"/><path d="m5722.4 904.8h2.24c30.75 41.996 69.75 64.496 123 64.496 88.5 0 134.24-59.246 134.24-146.99v-247.48h-141.74v212.99c0 39.746-16.5 65.996-53.25 65.996-36 0-57.75-31.5-57.75-72.75v-206.24h-141.74v382.48h135v-52.5" fill="#231f20"/><path d="m6257.9 713.56v33.75c-13.5-6.754-30.75-12.754-54.75-18.004-41.25-9-54-20.996-54-43.496 0-25.504 21-36.754 44.25-36.754 33 0 64.5 18.75 64.5 64.504zm6-94.504h-1.5c-24.75-33.75-63.75-53.989-122.25-53.989-73.5 0-127.49 39.75-127.49 114.75 0 84.743 65.24 109.49 138.74 117.74 81 9 102.75 18.75 102.75 42.75 0 21-9.75 36.746-40.5 36.746s-46.5-17.996-50.25-45.746h-134.25c3 75.746 61.51 137.99 181.5 137.99 58.5 0 107.25-11.996 138.75-35.246 31.49-24.746 45.74-53.996 45.74-105v-144.75c0-24.75 9.76-26.989 24.01-24.75h2.24v-80.239c-10.5-4.5-35.99-11.25-62.24-11.25-57.01 0-86.25 15.75-95.25 50.989" fill="#231f20"/><path d="m6449.2 1111h145.49v-536.23h-145.49v536.23" fill="#231f20"/></g></g></svg>
