<?xml version="1.0" encoding="utf-8"?>
<!DOCTYPE svg PUBLIC "-//W3C//DTD SVG 1.1//EN" "http://www.w3.org/Graphics/SVG/1.1/DTD/svg11.dtd">
<svg version="1.1" id="Vrstva_1" xmlns="http://www.w3.org/2000/svg" xmlns:xlink="http://www.w3.org/1999/xlink" x="0px" y="0px"
	 width="541.15px" height="221.105px" viewBox="0 0 541.15 221.105" style="enable-background:new 0 0 541.15 221.105;"
	 xml:space="preserve">
<style type="text/css">
<![CDATA[
	.st0{fill:#020304;}
]]>
</style>
<path class="st0" d="M67.031,117.459v42.637H0v-2.254h12.094V2.256H0V0.001h65.596v42.433h-2.255
	c0-37.309-14.554-40.178-32.388-40.178v74.615c16.809,0,18.858-11.89,18.858-29.108h2.255v59.856h-2.255
	c0-17.219-2.05-28.493-18.858-28.493v78.716c17.834,0,33.822-3.896,33.822-40.383H67.031"/>
<path class="st0" d="M170.135,2.255H158.04V0h43.048v2.255h-12.094v155.586c17.834,0,33.413-3.896,33.413-40.383h2.254v42.638
	H158.04v-2.255h12.095V2.255"/>
<path class="st0" d="M328.176,2.255h-12.095V0h43.048v2.255h-12.094v155.586c17.834,0,33.412-3.896,33.412-40.383h2.255v42.638
	h-66.621v-2.255h12.095V2.255"/>
<path class="st0" d="M535.053,153.358c0.536,0,1.027-0.028,1.241-0.403c0.07-0.125,0.109-0.289,0.109-0.503
	c0-0.688-0.625-0.816-1.212-0.816h-1.146v1.723H535.053 M536.481,156.484l-1.467-2.412h-0.97v2.412H533.2v-5.563h2.118
	c1.315,0,1.966,0.484,1.966,1.582c0,0.498-0.155,0.854-0.415,1.101c-0.259,0.246-0.618,0.38-1.026,0.432l1.583,2.449H536.481z
	 M535.065,157.722c1.091,0,2.067-0.428,2.771-1.145c0.703-0.719,1.134-1.727,1.134-2.889c0-2.284-1.722-4.007-3.905-4.007
	c-1.104,0-2.086,0.431-2.792,1.147c-0.707,0.717-1.137,1.718-1.137,2.859C531.136,156.012,532.857,157.722,535.065,157.722z
	 M530.166,153.689c0-1.656,0.812-3.043,2.027-3.896c0.177-0.124,0.363-0.229,0.557-0.329c0.695-0.363,1.479-0.584,2.313-0.584h0.001
	c2.629,0,4.874,2.041,4.874,4.81c0,1.397-0.561,2.606-1.451,3.466c-0.89,0.86-2.107,1.37-3.424,1.37
	C532.41,158.525,530.166,156.484,530.166,153.689z M505.074,88.35v-9.224c16.809,0,18.858,11.273,18.858,28.493h2.254V47.762h-2.254
	c0,17.219-2.051,29.109-18.858,29.109V2.255c17.834,0,32.389,2.87,32.389,40.178h2.254V0H474.12v2.255h12.095v155.586H474.12v2.255
	h67.03v-42.638h-2.254c0,36.487-15.988,40.383-33.822,40.383V88.35L505.074,88.35z"/>
<path class="st0" d="M22.072,167.193h-7.366v49.143h7.366c14.65,0,24.947-10.131,24.947-24.53S36.722,167.193,22.072,167.193
	 M42.582,211.897c-5.441,5.358-11.721,7.786-20.427,7.786H11.105v-55.839h11.051c8.706,0,14.985,2.428,20.427,7.786
	c5.273,5.189,8.204,12.39,8.204,20.175C50.786,199.507,47.856,206.706,42.582,211.897z"/>
<polyline class="st0" points="69.119,219.683 69.119,163.844 95.824,163.844 95.824,167.193 72.719,167.193 72.719,187.452 
	95.322,187.452 95.322,190.801 72.719,190.801 72.719,216.335 95.824,216.335 95.824,219.683 69.119,219.683 "/>
<path class="st0" d="M140.275,220.604c-15.737,0-29.133-13.144-29.133-28.715c0-15.655,13.228-28.798,28.965-28.798
	c5.861,0,11.889,1.925,16.325,5.274c0.586,0.418,1.423,1.088,2.428,2.009v4.938c-3.516-3.934-5.273-5.189-9.628-6.947
	c-3.097-1.257-6.194-1.843-9.208-1.843c-13.562,0-25.114,11.805-25.114,25.533c0,13.562,11.637,25.199,25.197,25.199
	c5.442,0,12.559-2.679,16.492-6.195c0.586-0.503,1.34-1.256,2.261-2.26v4.854C152.665,218.51,147.056,220.604,140.275,220.604"/>
<path class="st0" d="M203.143,166.523c-13.812,0-25.198,11.47-25.198,25.366c0,13.813,11.47,25.366,25.198,25.366
	c13.813,0,25.198-11.553,25.198-25.366C228.341,177.992,216.956,166.523,203.143,166.523 M203.143,220.604
	c-15.738,0-28.965-13.061-28.965-28.715c0-15.739,13.227-28.798,28.965-28.798c15.823,0,28.966,13.059,28.966,28.798
	C232.109,207.543,218.966,220.604,203.143,220.604z"/>
<path class="st0" d="M267.184,168.867c-2.176-1.089-4.854-1.675-8.539-1.675h-4.604v22.771h5.356
	c8.121,0,12.726-4.102,12.726-11.385C272.123,174.225,270.198,170.458,267.184,168.867 M273.63,219.683l-17.915-26.371h-1.674
	v26.371h-3.601v-55.839h7.953c5.692,0,8.874,0.837,11.804,2.847c3.601,2.596,5.609,6.78,5.609,11.972
	c0,6.696-3.6,12.055-9.209,13.645c-2.177,0.67-3.097,0.838-6.781,1.005l18.25,26.371H273.63z"/>
<path class="st0" d="M312.892,171.546L302.259,198h21.097L312.892,171.546 M332.146,219.683l-7.451-18.334H300.92l-7.367,18.334
	h-4.102l23.522-57.513l23.189,57.513H332.146z"/>
<polyline class="st0" points="362.701,167.193 362.701,219.683 359.101,219.683 359.101,167.193 344.702,167.193 344.702,163.844 
	377.183,163.844 377.183,167.193 362.701,167.193 "/>
<rect x="392.252" y="163.844" class="st0" width="3.6" height="55.839"/>
<path class="st0" d="M443.149,166.523c-13.812,0-25.196,11.47-25.196,25.366c0,13.813,11.469,25.366,25.196,25.366
	c13.814,0,25.199-11.553,25.199-25.366C468.349,177.992,456.964,166.523,443.149,166.523 M443.149,220.604
	c-15.737,0-28.966-13.061-28.966-28.715c0-15.739,13.229-28.798,28.966-28.798c15.822,0,28.967,13.059,28.967,28.798
	C472.115,207.543,458.972,220.604,443.149,220.604z"/>
<polyline class="st0" points="494.046,172.049 494.046,219.683 490.445,219.683 490.445,163.259 537.242,212.316 537.242,163.845 
	540.926,163.845 540.926,221.106 494.046,172.049 "/>
</svg>
