<?xml version="1.0" encoding="UTF-8"?>
<!DOCTYPE svg  PUBLIC '-//W3C//DTD SVG 1.1//EN'  'http://www.w3.org/Graphics/SVG/1.1/DTD/svg11.dtd'>
<svg width="528.78px" height="116.55px" enable-background="new 0 0 528.777 116.546" version="1.1" viewBox="0 0 528.777 116.546" xml:space="preserve" xmlns="http://www.w3.org/2000/svg">
<style type="text/css">
<![CDATA[
	.st0_logo{fill:#000E1F;}
]]>
</style>
<path class="st0_logo" d="m499.82 42.302c2.404 0 3.5 2.067 3.5 5.228 0 11.548-7.658 22.001-20.457 23.581 2.187-13.979 10.174-28.809 16.957-28.809m-13.785 60.535c12.033 0 20.457-6.32 25.709-17.748h-0.656c-4.814 6.078-9.518 8.873-15.754 8.873-7.33 0-13.018-4.74-13.018-15.68 0-1.824 0.107-3.77 0.436-5.713 19.584-0.365 34.354-5.592 34.354-18.962 0-8.023-7.004-13.493-17.615-13.493-20.676 0-36.43 18.354-36.43 38.412-1e-3 15.073 9.407 24.311 22.974 24.311m-64.327-31.605c2.953-13.491 9.518-20.542 14.441-20.542 2.953 0 3.938 1.823 3.938 4.498 0 1.337-0.219 3.038-0.656 4.86l-5.908 26.014c-0.328 1.58-0.547 2.918-0.547 4.256 0 7.049 4.268 12.52 12.691 12.52 5.25 0 11.049-1.824 16.299-8.023v-0.242c-2.297 1.094-4.156 1.701-5.797 1.701-2.736 0-4.377-1.58-4.377-4.498 0-0.729 0.109-1.58 0.328-2.553l6.455-28.564c0.547-2.432 0.875-4.984 0.875-7.172 0-7.536-3.281-13.249-11.814-13.249-10.174 0-18.379 8.509-23.521 20.421l4.158-19.206h-25.271v0.243c2.734 2.188 4.047 3.769 4.047 6.807 0 1.459-0.328 3.282-0.875 6.078l-10.613 47.041h19.365l6.782-30.39zm-66.513 0c2.953-13.491 9.518-20.542 14.439-20.542 2.953 0 3.939 1.823 3.939 4.498 0 1.337-0.219 3.038-0.656 4.86l-5.908 26.014c-0.328 1.58-0.547 2.918-0.547 4.256 0 7.049 4.268 12.52 12.689 12.52 5.252 0 11.051-1.824 16.301-8.023v-0.242c-2.297 1.094-4.156 1.701-5.797 1.701-2.736 0-4.377-1.58-4.377-4.498 0-0.729 0.109-1.58 0.328-2.553l6.455-28.564c0.547-2.432 0.875-4.984 0.875-7.172 0-7.536-3.281-13.249-11.814-13.249-10.176 0-18.381 8.509-23.521 20.421l4.156-19.206h-25.271v0.243c2.734 2.188 4.049 3.769 4.049 6.807 0 1.459-0.328 3.282-0.875 6.078l-10.613 47.041h19.365l6.783-30.39zm-65.641 22.975c-4.375 0-6.455-3.768-6.455-10.818 0-14.465 8.098-39.263 17.725-39.263 3.719 0 6.453 3.039 6.453 8.996 0 2.552-0.438 5.47-1.312 9.116l-3.5 14.707c-2.19 8.752-7.112 17.262-12.911 17.262m34.789-28.93c1.861-8.63 3.83-17.747 6.236-25.04-7.33 1.458-13.566 4.74-18.27 11.183-2.299-6.321-6.783-11.183-15.535-11.183-18.816 0-33.257 20.177-33.257 41.206 0 12.764 6.345 21.271 16.628 21.271s16.082-7.414 20.457-16.287c-0.328 0.973-0.547 2.188-0.547 2.916-0.219 7.781 3.939 13.494 12.582 13.494 5.143 0 11.049-1.945 16.301-8.023v-0.242c-7.111 3.523-11.379 1.215-9.846-5.35l5.251-23.945zm-60.933-23.825h-25.272v0.243c2.735 2.188 4.048 3.769 4.048 6.807 0 1.459-0.328 3.282-0.984 6.078l-7.111 31.482c-0.328 1.58-0.547 2.918-0.547 4.377 0 7.049 4.267 12.398 12.69 12.398 5.142 0 11.049-1.824 16.301-8.023v-0.242c-2.299 1.094-4.268 1.701-5.799 1.701-2.736 0-4.376-1.58-4.376-4.498 0-0.729 0.11-1.58 0.329-2.553l10.721-47.77zm-17.176-18.356c0 6.2 4.157 10.94 10.174 10.94 6.455 0 11.376-5.47 11.376-12.277 0-6.32-4.156-11.061-10.173-11.061-6.345 1e-3 -11.377 5.47-11.377 12.398m-28.335 41.085c0.876 0.975 3.064 1.945 5.689 1.945 6.892 0 12.8-5.834 12.8-14.707 0-6.563-4.267-11.183-10.502-11.183-9.519 0-15.755 10.817-20.458 22.485l4.703-21.271h-25.271v0.243c2.735 2.188 4.048 3.769 4.048 6.807 0 1.459-0.328 3.282-0.875 6.078l-10.613 47.041h19.365l5.907-26.619c3.063-13.979 9.3-23.339 15.206-23.339 3.173 0 5.143 2.066 5.143 5.348 0 4.135-2.078 6.809-5.142 7.172m-79.97 30.026c-4.376 0-6.455-3.768-6.455-10.818 0-14.465 8.096-39.263 17.723-39.263 3.72 0 6.455 3.039 6.455 8.996 0 2.552-0.438 5.47-1.313 9.116l-3.5 14.707c-2.189 8.752-7.112 17.262-12.91 17.262m34.788-28.93c1.861-8.63 3.83-17.747 6.236-25.04-7.33 1.458-13.565 4.74-18.27 11.183-2.297-6.321-6.783-11.183-15.535-11.183-18.816 0-33.257 20.177-33.257 41.206 0 12.764 6.345 21.271 16.628 21.271 10.284 0 16.082-7.414 20.458-16.287-0.328 0.973-0.547 2.188-0.547 2.916-0.22 7.781 3.938 13.494 12.581 13.494 5.142 0 11.05-1.945 16.301-8.023v-0.242c-7.111 3.523-11.378 1.215-9.846-5.35l5.251-23.945zm-64.872-4.619c0.547-2.553 0.875-5.105 0.875-7.536 0-7.294-3.063-12.885-11.377-12.885-9.956 0-17.395 8.144-22.756 20.056 0.547-2.309 0.766-4.619 0.766-6.685 0-7.415-3.391-13.371-11.487-13.371-9.955 0-17.394 8.144-22.755 20.056l4.157-18.841h-25.271v0.243c2.735 2.188 4.048 3.769 4.048 6.807 0 1.459-0.329 3.282-0.876 6.078l-10.611 47.041h19.363l6.783-30.389c2.954-13.491 9.299-20.542 14.003-20.542 2.517 0 3.392 1.702 3.392 4.133 0 1.216-0.219 2.918-0.657 4.497l-9.517 42.301h19.363l6.783-30.389c2.954-13.491 9.409-20.542 14.003-20.542 2.517 0 3.392 1.702 3.392 4.133 0 1.216-0.219 2.918-0.547 4.497l-6.017 26.742c-0.328 1.58-0.547 2.918-0.547 4.377 0 7.049 4.266 12.398 12.581 12.398 5.251 0 11.159-1.824 16.41-8.023l-0.11-0.242c-2.188 1.094-4.157 1.701-5.798 1.701-2.625 0-4.376-1.58-4.376-4.498 0-0.729 0.11-1.58 0.328-2.553l6.455-28.564z"/>
</svg>