<?xml version="1.0" encoding="utf-8"?>
<!-- Generator: Adobe Illustrator 16.0.0, SVG Export Plug-In . SVG Version: 6.00 Build 0)  -->
<!DOCTYPE svg PUBLIC "-//W3C//DTD SVG 1.1//EN" "http://www.w3.org/Graphics/SVG/1.1/DTD/svg11.dtd">
<svg version="1.1" id="Vrstva_1" xmlns="http://www.w3.org/2000/svg" xmlns:xlink="http://www.w3.org/1999/xlink" x="0px" y="0px"
	 width="50px" height="50px" viewBox="0 0 50 50" enable-background="new 0 0 50 50" xml:space="preserve">
<g>
	<path d="M36.201,0H13.798C6.189,0,0,6.19,0,13.798v22.404C0,43.811,6.189,50,13.798,50h22.403C43.811,50,50,43.81,50,36.202V13.798
		C50,6.19,43.811,0,36.201,0z M45.564,36.202c0,5.162-4.2,9.361-9.363,9.361H13.798c-5.162,0.002-9.361-4.199-9.361-9.361V13.798
		c0-5.163,4.199-9.362,9.361-9.362h22.403c5.163,0,9.362,4.199,9.362,9.362L45.564,36.202L45.564,36.202z"/>
	<path d="M25,12.118c-7.104,0-12.884,5.779-12.884,12.884c0,7.104,5.78,12.882,12.884,12.882s12.884-5.778,12.884-12.882
		C37.884,17.897,32.104,12.118,25,12.118z M25,33.447c-4.658,0-8.447-3.789-8.447-8.446c0-4.658,3.789-8.448,8.447-8.448
		s8.447,3.79,8.447,8.448C33.447,29.659,29.658,33.447,25,33.447z"/>
	<path d="M38.424,8.355c-0.854,0-1.693,0.346-2.298,0.952c-0.606,0.604-0.955,1.443-0.955,2.302c0,0.854,0.349,1.694,0.955,2.301
		c0.603,0.602,1.443,0.952,2.298,0.952c0.857,0,1.695-0.35,2.301-0.952c0.607-0.607,0.953-1.446,0.953-2.301
		c0-0.859-0.346-1.698-0.953-2.302C40.122,8.702,39.281,8.355,38.424,8.355z"/>
</g>
</svg>
