<?xml version="1.0" encoding="utf-8"?>
<!-- Generator: Adobe Illustrator 16.0.0, SVG Export Plug-In . SVG Version: 6.00 Build 0)  -->
<!DOCTYPE svg PUBLIC "-//W3C//DTD SVG 1.1//EN" "http://www.w3.org/Graphics/SVG/1.1/DTD/svg11.dtd">
<svg version="1.1" id="Vrstva_1" xmlns="http://www.w3.org/2000/svg" xmlns:xlink="http://www.w3.org/1999/xlink" x="0px" y="0px"
	 width="50px" height="50px" viewBox="0 0 50 50" enable-background="new 0 0 50 50" xml:space="preserve">
<path fill="#030104" d="M25,0C11.193,0,0,11.192,0,25s11.193,25,25,25c13.808,0,25-11.193,25-25S38.808,0,25,0z M27.019,33.477
	c-1.89-0.146-2.685-1.083-4.167-1.982c-0.813,4.273-1.81,8.37-4.759,10.511c-0.911-6.46,1.336-11.312,2.38-16.462
	c-1.779-2.995,0.214-9.023,3.967-7.537c4.618,1.826-4,11.136,1.786,12.297c6.038,1.215,8.503-10.478,4.758-14.281
	c-5.411-5.491-15.75-0.125-14.478,7.735c0.309,1.922,2.295,2.505,0.793,5.157c-3.464-0.767-4.497-3.499-4.363-7.14
	c0.214-5.96,5.354-10.134,10.513-10.711c6.521-0.73,12.643,2.395,13.488,8.53C37.886,26.517,33.992,34.016,27.019,33.477z"/>
</svg>
