<?xml version="1.0" encoding="utf-8"?>
<!-- Generator: Adobe Illustrator 16.0.0, SVG Export Plug-In . SVG Version: 6.00 Build 0)  -->
<!DOCTYPE svg PUBLIC "-//W3C//DTD SVG 1.1//EN" "http://www.w3.org/Graphics/SVG/1.1/DTD/svg11.dtd">
<svg version="1.1" id="Vrstva_1" xmlns="http://www.w3.org/2000/svg" xmlns:xlink="http://www.w3.org/1999/xlink" x="0px" y="0px"
	 width="71.734px" height="50px" viewBox="0 0 71.734 50" enable-background="new 0 0 71.734 50" xml:space="preserve">
<g>
	<path d="M70.495,8.043c-0.878-3.815-3.998-6.63-7.755-7.05C53.844,0,44.841-0.004,35.879,0C26.915-0.004,17.91,0,9.015,0.994
		C5.26,1.413,2.142,4.228,1.264,8.043C0.014,13.476,0,19.407,0,25s0,11.523,1.249,16.955c0.877,3.814,3.996,6.63,7.753,7.049
		c8.895,0.995,17.899,1,26.862,0.995c8.965,0.005,17.968,0,26.861-0.995c3.755-0.418,6.876-3.232,7.754-7.049
		C71.73,36.523,71.734,30.593,71.734,25C71.734,19.407,71.745,13.476,70.495,8.043z M26.609,36.135c0-7.936,0-15.789,0-23.724
		c7.604,3.967,15.155,7.907,22.807,11.898C41.788,28.266,34.233,32.182,26.609,36.135z"/>
</g>
</svg>
